<?xml version="1.0" encoding="UTF-8" standalone="no"?>
<!-- Created with Inkscape (http://www.inkscape.org/) -->

<svg
   xmlns:dc="http://purl.org/dc/elements/1.1/"
   xmlns:cc="http://creativecommons.org/ns#"
   xmlns:rdf="http://www.w3.org/1999/02/22-rdf-syntax-ns#"
   xmlns:svg="http://www.w3.org/2000/svg"
   xmlns="http://www.w3.org/2000/svg"
   xmlns:sodipodi="http://sodipodi.sourceforge.net/DTD/sodipodi-0.dtd"
   xmlns:inkscape="http://www.inkscape.org/namespaces/inkscape"
   width="121.39965mm"
   height="17.360069mm"
   viewBox="0 0 430.15624 61.512056"
   id="svg2"
   version="1.1"
   inkscape:version="0.91 r13725"
   sodipodi:docname="ChromeTronLogo4Vita.svg">
  <defs
     id="defs4" />
  <sodipodi:namedview
     id="base"
     pagecolor="#ffffff"
     bordercolor="#666666"
     borderopacity="1.0"
     inkscape:pageopacity="0.0"
     inkscape:pageshadow="2"
     inkscape:zoom="1.6046503"
     inkscape:cx="230.85719"
     inkscape:cy="83.50965"
     inkscape:document-units="px"
     inkscape:current-layer="text4136"
     showgrid="false"
     fit-margin-top="0"
     fit-margin-left="0"
     fit-margin-right="0"
     fit-margin-bottom="0"
     inkscape:window-width="1536"
     inkscape:window-height="801"
     inkscape:window-x="-8"
     inkscape:window-y="-8"
     inkscape:window-maximized="1" />
  <metadata
     id="metadata7">
    <rdf:RDF>
      <cc:Work
         rdf:about="">
        <dc:format>image/svg+xml</dc:format>
        <dc:type
           rdf:resource="http://purl.org/dc/dcmitype/StillImage" />
        <dc:title></dc:title>
      </cc:Work>
    </rdf:RDF>
  </metadata>
  <g
     inkscape:label="Layer 1"
     inkscape:groupmode="layer"
     id="layer1"
     transform="translate(-22.236961,-395.25828)">
    <g
       style="font-style:normal;font-weight:normal;font-size:80px;line-height:125%;font-family:sans-serif;letter-spacing:0px;word-spacing:0px;fill:#000000;fill-opacity:1;stroke:#000000;stroke-width:1px;stroke-linecap:butt;stroke-linejoin:miter;stroke-opacity:1"
       id="text4136">
      <path
         d="m 24.729716,417.0883 0,-6.32813 q 0,-2.5 1.875,-4.375 1.875,-1.875 4.453125,-1.875 l 25.546875,0 8.4375,12.57813 -40.3125,0 z m 31.875,37.8125 -25.546875,0 q -2.578125,0 -4.453125,-1.875 -1.875,-1.875 -1.875,-4.45313 l 0,-28.98437 12.65625,0 0,22.73437 27.65625,0 -8.4375,12.57813 z"
         style="font-style:normal;font-variant:normal;font-weight:100;font-stretch:normal;font-family:'AR DESTINE';-inkscape-font-specification:'AR DESTINE Thin';fill:#ffffff;fill-opacity:1;stroke:#000000;stroke-opacity:1"
         id="path4157"
         inkscape:connector-curvature="0" />
      <path
         d="m 92.153402,454.9008 0,-30.23438 -25.234375,0 0,-27.73437 12.65625,0 0,15.15625 18.828125,0 q 2.578128,0 4.453128,1.79687 1.875,1.79688 1.875,4.45313 l 0,36.5625 -12.578128,0 z m -25.234375,0 0,-27.73438 12.65625,0 0,27.73438 -12.65625,0 z"
         style="font-style:normal;font-variant:normal;font-weight:100;font-stretch:normal;font-family:'AR DESTINE';-inkscape-font-specification:'AR DESTINE Thin';fill:#ffffff;fill-opacity:1;stroke:#000000;stroke-opacity:1"
         id="path4159"
         inkscape:connector-curvature="0" />
      <path
         d="m 123.01821,424.04323 0,-12.57812 14.21875,0 8.4375,12.57812 -22.65625,0 z m -15.15625,30.23438 0,-42.8125 12.65625,0 0,42.8125 -12.65625,0 z"
         style="font-style:normal;font-variant:normal;font-weight:100;font-stretch:normal;font-family:'AR DESTINE';-inkscape-font-specification:'AR DESTINE Thin';fill:#ffffff;fill-opacity:1;stroke:#000000;stroke-opacity:1"
         id="path4161"
         inkscape:connector-curvature="0" />
      <path
         d="m 145.20571,424.04323 0,-6.32812 q 0,-2.5 1.875,-4.375 1.875,-1.875 4.45313,-1.875 l 25.15625,0 q 2.65625,0 4.45312,1.875 1.875,1.79687 1.875,4.375 l 0,6.32812 -37.8125,0 z m 31.48438,30.23438 -25.15625,0 q -2.57813,0 -4.45313,-1.875 -1.875,-1.875 -1.875,-4.45313 l 0,-21.40625 12.65625,0 0,15.15625 12.57813,0 0,-15.15625 12.57812,0 0,21.40625 q 0,2.57813 -1.875,4.45313 -1.875,1.875 -4.45312,1.875 z"
         style="font-style:normal;font-variant:normal;font-weight:100;font-stretch:normal;font-family:'AR DESTINE';-inkscape-font-specification:'AR DESTINE Thin';fill:#ffffff;fill-opacity:1;stroke:#000000;stroke-opacity:1"
         id="path4163"
         inkscape:connector-curvature="0" />
      <path
         d="m 223.33071,454.27761 0,-30.23438 -35.3125,0 0,-12.57812 41.64063,0 q 2.57812,0 4.375,1.875 1.875,1.79687 1.875,4.375 l 0,36.5625 -12.57813,0 z m -17.65625,0 0,-27.73438 12.57813,0 0,27.73438 -12.57813,0 z m -17.65625,0 0,-27.73438 12.65625,0 0,27.73438 -12.65625,0 z"
         style="font-style:normal;font-variant:normal;font-weight:100;font-stretch:normal;font-family:'AR DESTINE';-inkscape-font-specification:'AR DESTINE Thin';fill:#ffffff;fill-opacity:1;stroke:#000000;stroke-opacity:1"
         id="path4165"
         inkscape:connector-curvature="0" />
      <path
         d="m 272.54946,439.12136 -7.96875,0 -8.4375,-12.57813 22.65625,0 0,6.32813 q 0,2.57812 -1.875,4.45312 -1.79687,1.79688 -4.375,1.79688 z m 0.39063,15.15625 -25.625,0 q -2.57813,0 -4.45313,-1.875 -1.875,-1.875 -1.875,-4.45313 l 0,-30.23437 q 0,-2.5 1.875,-4.375 1.875,-1.875 4.45313,-1.875 l 25.23437,0 q 2.57813,0 4.375,1.875 1.875,1.79687 1.875,4.375 l 0,6.32812 -25.15625,0 0,17.65625 27.73438,0 -8.4375,12.57813 z"
         style="font-style:normal;font-variant:normal;font-weight:100;font-stretch:normal;font-family:'AR DESTINE';-inkscape-font-specification:'AR DESTINE Thin';fill:#ffffff;fill-opacity:1;stroke:#000000;stroke-opacity:1"
         id="path4167"
         inkscape:connector-curvature="0" />
      <path
         d="m 323.33071,416.46511 -9.21875,0 0,-12.57813 17.65625,0 -8.4375,12.57813 z m -24.29687,37.8125 0,-37.8125 -12.57813,0 0,-12.57813 25.15625,0 0,50.39063 -12.57812,0 z"
         style="font-style:normal;font-variant:normal;font-weight:100;font-stretch:normal;font-family:'AR DESTINE';-inkscape-font-specification:'AR DESTINE Thin';fill:#ffffff;fill-opacity:1;stroke:#000000;stroke-opacity:1"
         id="path4169"
         inkscape:connector-curvature="0" />
      <path
         d="m 349.58071,424.04323 0,-12.57812 14.21875,0 8.4375,12.57812 -22.65625,0 z m -15.15625,30.23438 0,-42.8125 12.65625,0 0,42.8125 -12.65625,0 z"
         style="font-style:normal;font-variant:normal;font-weight:100;font-stretch:normal;font-family:'AR DESTINE';-inkscape-font-specification:'AR DESTINE Thin';fill:#ffffff;fill-opacity:1;stroke:#000000;stroke-opacity:1"
         id="path4171"
         inkscape:connector-curvature="0" />
      <path
         d="m 371.76821,424.04323 0,-6.32812 q 0,-2.5 1.875,-4.375 1.875,-1.875 4.45313,-1.875 l 25.15625,0 q 2.65625,0 4.45312,1.875 1.875,1.79687 1.875,4.375 l 0,6.32812 -37.8125,0 z m 31.48438,30.23438 -25.15625,0 q -2.57813,0 -4.45313,-1.875 -1.875,-1.875 -1.875,-4.45313 l 0,-21.40625 12.65625,0 0,15.15625 12.57813,0 0,-15.15625 12.57812,0 0,21.40625 q 0,2.57813 -1.875,4.45313 -1.875,1.875 -4.45312,1.875 z"
         style="font-style:normal;font-variant:normal;font-weight:100;font-stretch:normal;font-family:'AR DESTINE';-inkscape-font-specification:'AR DESTINE Thin';fill:#ffffff;fill-opacity:1;stroke:#000000;stroke-opacity:1"
         id="path4173"
         inkscape:connector-curvature="0" />
      <path
         d="m 437.94552,454.27761 0,-30.23438 -25.23438,0 0,-12.57812 31.48438,0 q 2.57812,0 4.45312,1.79687 1.875,1.79688 1.875,4.45313 l 0,36.5625 -12.57812,0 z m -25.23438,0 0,-27.73438 12.65625,0 0,27.73438 -12.65625,0 z"
         style="font-style:normal;font-variant:normal;font-weight:100;font-stretch:normal;font-family:'AR DESTINE';-inkscape-font-specification:'AR DESTINE Thin';fill:#ffffff;fill-opacity:1;stroke:#000000;stroke-opacity:1"
         id="path4175"
         inkscape:connector-curvature="0" />
    </g>
  </g>
</svg>
