<?xml version="1.0" encoding="UTF-8" standalone="no"?>
<!-- Created with Inkscape (http://www.inkscape.org/) -->

<svg
   xmlns:dc="http://purl.org/dc/elements/1.1/"
   xmlns:cc="http://creativecommons.org/ns#"
   xmlns:rdf="http://www.w3.org/1999/02/22-rdf-syntax-ns#"
   xmlns:svg="http://www.w3.org/2000/svg"
   xmlns="http://www.w3.org/2000/svg"
   xmlns:sodipodi="http://sodipodi.sourceforge.net/DTD/sodipodi-0.dtd"
   xmlns:inkscape="http://www.inkscape.org/namespaces/inkscape"
   width="80.568451mm"
   height="76.114861mm"
   viewBox="0 0 285.47876 269.69832"
   id="svg5449"
   version="1.1"
   inkscape:version="0.91 r13725"
   sodipodi:docname="red.svg">
  <defs
     id="defs5451" />
  <sodipodi:namedview
     id="base"
     pagecolor="#ffffff"
     bordercolor="#666666"
     borderopacity="1.0"
     inkscape:pageopacity="0.0"
     inkscape:pageshadow="2"
     inkscape:zoom="0.86132812"
     inkscape:cx="-61.815885"
     inkscape:cy="167.14903"
     inkscape:document-units="px"
     inkscape:current-layer="layer1"
     showgrid="false"
     inkscape:window-width="1536"
     inkscape:window-height="801"
     inkscape:window-x="-8"
     inkscape:window-y="-8"
     inkscape:window-maximized="1"
     fit-margin-top="1"
     fit-margin-left="1"
     fit-margin-right="1"
     fit-margin-bottom="1" />
  <metadata
     id="metadata5454">
    <rdf:RDF>
      <cc:Work
         rdf:about="">
        <dc:format>image/svg+xml</dc:format>
        <dc:type
           rdf:resource="http://purl.org/dc/dcmitype/StillImage" />
        <dc:title></dc:title>
      </cc:Work>
    </rdf:RDF>
  </metadata>
  <g
     inkscape:label="Layer 1"
     inkscape:groupmode="layer"
     id="layer1"
     transform="translate(-414.53953,-674.86451)">
    <path
       d="m 693.78284,754.86832 c -5.4,-18.2 -21.6,-36.3 -30.3,-46.3 -8.7,-10 -33.5,-22.3 -52.3,-26.6 -18.8,-4.3 -32.5,-4.5 -46.8,-1.7 -14.3,2.8 -24.3,5.8 -24.3,5.8 0,0 3.3,5.8 11.5,6.3 8.2,0.6 18,-2.2 34.2,-1.5 16.2,0.7 26.2,2 26,12.6 -0.2,10.6 -2,22.1 -1.5,22.7 0.6,0.6 22.1,17.3 32.6,24.4 10.4,7.1 22.5,14.3 23.8,21.2 1.3,6.89999 -0.2,13.19999 -3,15.79999 -2.8,2.6 -9.9,6.3 -9.9,6.3 0,0 10.4,-10.6 10.8,-14.5 0.4,-3.89999 0,-7.09999 0,-7.09999 l -11,-10.2 -47.6,-34.8 0.9,-15.1 c 0,0 -4.6,6.9 -7.1,9.9 -2.4,3 -7.1,7.6 -7.6,10.6 -0.6,3 -0.6,8 -0.6,8 0,0 -3,-0.7 -3,-1.3 0,-0.6 -0.2,-6.3 0.9,-9.1 1.1,-2.8 16.7,-19.5 17.3,-23.3 0.6,-3.7 -0.2,-5.8 -0.2,-5.8 0,0 -0.2,4.7 -6.5,7.4 -6.3,2.8 -16,7.1 -21.8,10 -5.8,3 -13.7,4.8 -14.2,6.3 -0.5,1.5 -0.3,-4.1 3.2,-5.6 3.5,-1.5 18.4,-7.8 25.9,-11.5 7.4,-3.7 14,-9.1 7.6,-11.3 -6.3,-2.2 -14,-2.4 -21,-1.9 -7.1,0.6 -34.6,2.2 -35.7,2.4 -1.1,0.2 -28.1,2 -22.7,-3.4 5.4,-5.4 16.4,-8.7 16.4,-8.7 0,0 -7.3,-2 -21.8,3.3 -14.5,5.4 -18.2,12.8 -31.1,16.9 -12.8,4.1 -18.6,6.1 -34.4,7.8 -15.8,1.7 -32.4,6.1 -32.4,8.7 0,2.6 3,5.4 15.6,7.4 12.7,2 28.3,6.9 31.8,8.4 3.5,1.5 3.5,1.5 3.5,1.5 0,0 11,-5 33.5,-7.8 22.5,-2.8 31.4,-3.7 38.1,-5.2 6.7,-1.5 20.1,-5 20.1,-5 0,0 -1.7,4.3 -12.1,6.1 -10.4,1.9 -31.6,5 -39.1,6.1 -7.4,1.1 -19.5,2.6 -24.6,3.7 -5,1.1 -11.5,3 -11.5,3 l 27,6.9 c 0,0 28.3,-3.3 38.3,-3.2 10,0.2 31.6,0 41.7,1.5 8.6,1.3 19.7,2.1 24.2,2.9 l -32,-12.8 c 0,0 -9.5,-3.5 -10.8,-5 -1.3,-1.5 -1.3,-1.5 -1.3,-1.5 l 17.7,7.1 18.4,7.3 -1.7,-2.6 61.6,26.8 c 0,0 3.7,2.2 2.8,8.9 -0.9,6.69999 -1.1,8.59999 -4.5,9.49999 -3.3,0.9 -10,-0.6 -10.2,-6.3 -0.2,-5.79999 5.4,-11.89999 5.4,-11.89999 0,0 -22.5,-9.1 -37,-13.2 -14.5,-4.1 -39.8,-7.6 -58.4,-7.4 -18.6,0.2 -42.2,1.3 -42.2,1.3 0,0 28.1,5.8 39.8,9.7 11.7,3.9 31.3,11 39.4,17.5 8.2,6.49999 16,16.39999 28.1,17.89999 12.1,1.5 23.8,0.9 27.2,-0.4 3.3,-1.3 7.4,-4.1 7.4,-4.1 0,0 -4.3,5.6 -7.4,6.9 -3.2,1.3 -12.7,2.6 -20.7,2.2 -8,-0.4 -7.4,2.8 -27.4,-12.5 -19.9,-15.29999 -50.6,-25.29999 -50.6,-25.29999 0,0 -34,-9.1 -40.6,-9.5 -6.5,-0.4 -22.5,-3.2 -22.5,-3.2 0,0 25.9,12.5 37.6,16.6 11.7,4.1 32,12.1 40.7,14.69999 8.7,2.6 34.4,13.6 36.7,16.2 2.2,2.6 5,10.4 5,10.4 0,0 18.8,-1 26,4.4 7.3,5.4 9.7,9.1 8.7,12.1 -0.9,3 -13.6,18.8 -16.7,19.5 -3.2,0.7 -24.9,3.9 -24.9,3.9 0,0 -0.4,11.4 -19.5,16.2 -19.2,4.8 -45.4,10.4 -62.5,8.2 -17.1,-2.2 -29.8,-6.1 -41.1,-16.2 -11.3,-10 -18.6,-17.1 -18.6,-17.1 l -8.6,10.2 14.5,17.9 -16,-15.8 -7.1,8 c 0,0 1.7,7.1 0,11.2 -1.7,4.1 -7.1,13.8 -7.4,18.2 -0.4,4.5 1.5,11.7 1.5,11.7 0,0 13.8,-6.7 24,-7.4 10.2,-0.7 20.5,-0.6 20.5,-0.6 l -9.5,0.9 c 0,0 4.3,2.4 2.6,4.8 -1.7,2.4 -19.7,7.3 -22.5,7.4 -2.8,0.2 -2.8,0.2 -2.8,0.2 l 11,-3.5 4.8,-1.5 c 0,0 0.7,-0.7 -2,-2 -2.8,-1.3 -6,-3.7 -6,-3.7 0,0 -8.7,1.9 -14.1,4.1 -5.4,2.2 -5.4,2.2 -5.4,2.2 0,0 1.7,5.6 2,6.5 0.4,0.9 6.5,10 7.4,11.1 0.8,1.1 4.8,0.3 8.5,-1.2 3.6,-1.5 9.5,-3.7 12,-3.8 2.5,-0.1 -8.6,-0.9 -8.6,-0.9 l 15.8,-0.7 c 0,0 7.4,-8.5 9.2,-11.1 1.8,-2.6 6.5,-5.9 2.1,-10 -4.4,-4.1 -17.8,-18.3 -17.8,-18.3 l 24.1,21.3 c 0,0 -5.8,12 -11.2,16.5 -5.4,4.5 -6.1,5.3 -9.9,5.5 -3.7,0.2 -9.4,1.3 -13.2,3.2 -3.8,1.9 -8.9,3.5 -9.6,3.1 -0.7,-0.4 -1.5,-0.9 -1.5,-0.9 l 4.7,8.8 c 0,0 6,9.7 11.7,11.5 5.7,1.9 6.4,2.9 16.1,0.7 9.7,-2.2 21.9,-7.4 50.9,-13.2 29,-5.8 47.8,-8.9 56,-9.7 8.2,-0.7 35.9,-4.3 53.4,-16 17.5,-11.7 24.4,-17.1 28.3,-25.3 3.9,-8.2 14.7,-25.9 18,-31.6 3.3,-5.8 7.4,-20.7 9.9,-30.1 3,-9.1 6.9,-40.79999 1.5,-58.99999 z m -243.6,120.09999 c -1.8,5.4 -5,6.9 -6.2,7.7 -1.2,0.8 -6.8,2.5 -6.8,2.5 0,0 5,-2.8 7.4,-4.7 2.4,-2 3.3,-4 3.3,-4 0,0 -5.3,2.2 -7.3,3.3 -2,1.1 -3.4,1.9 -3.4,1.6 0,-0.3 6.6,-7.1 6.6,-11.9 0.1,-4.8 -0.3,-9.6 -0.3,-9.6 0,0 8.5,9.7 6.7,15.1 z m 121.9,15.3 c -34.6,7.8 -74.1,5.6 -74.1,5.6 l 0,-3.3 c 0,0 26.2,-1.3 56.2,-4.5 30,-3.2 62.5,-16.6 62.5,-16.6 0,0 -10,11 -44.6,18.8 z"
       id="path4209-5-3"
       inkscape:connector-curvature="0"
       style="fill:#ff2525;fill-opacity:1" />
    <path
       d="m 510.87597,766.27426 -0.4,-0.2 c 0,0 -5.2,33.9 -5.2,34.4 0,0.5 -34,42.2 -34,42.2 0,0 18.4,15.8 28.5,19 10,3.2 20.3,5.8 33.5,5.6 13.2,-0.2 19.5,-3.2 26.8,-7.3 7.3,-4.1 18.8,-5.2 26.4,-10.8 7.6,-5.6 10.2,-23.6 10.2,-28.7 0,-5 3.7,-7.3 4.7,-9.9 0.9,-2.6 -3.9,-6.3 -8,-9.9 -4.1,-3.5 -22,-10.2 -22,-10.2 l -35,38 -8.7,0 34.4,-42 -8.9,-4.1 -34.4,40.4 -9.9,0 35.5,-42.6 -33.5,-13.9 z"
       id="path4211-8-8"
       inkscape:connector-curvature="0"
       style="fill:#550000" />
    <path
       d="m 637.41179,820.20665 -13,-11.7 -18.4,-1.1 -5.8,34.8 24.7,-6.5 12.5,-15.5 z m -32.2,14.3 3.3,-23.1 16,1.7 c 0,0 8.4,3.1 8.6,5.2 0.1,2.1 -9.5,12.1 -14.3,14.1 -4.8,2.1 -13.6,2.1 -13.6,2.1 z"
       id="path4213-6-1"
       inkscape:connector-curvature="0" />
  </g>
</svg>
